<mxfile host="app.diagrams.net" modified="2024-01-16T01:25:20.778Z" agent="Mozilla/5.0 (Windows NT 10.0; Win64; x64) AppleWebKit/537.36 (KHTML, like Gecko) Chrome/120.0.0.0 Safari/537.36" etag="Uc9LQNLJytt_RsbHyUvw" version="22.1.18" type="device">
  <diagram id="C5RBs43oDa-KdzZeNtuy" name="Page-1">
    <mxGraphModel dx="2514" dy="908" grid="1" gridSize="10" guides="1" tooltips="1" connect="1" arrows="1" fold="1" page="1" pageScale="1" pageWidth="827" pageHeight="1169" math="0" shadow="0">
      <root>
        <mxCell id="WIyWlLk6GJQsqaUBKTNV-0" />
        <mxCell id="WIyWlLk6GJQsqaUBKTNV-1" parent="WIyWlLk6GJQsqaUBKTNV-0" />
        <mxCell id="Jw7gK9yT97R9R9Le-K8j-90" value="" style="edgeStyle=orthogonalEdgeStyle;rounded=0;orthogonalLoop=1;jettySize=auto;html=1;" edge="1" parent="WIyWlLk6GJQsqaUBKTNV-1" source="Jw7gK9yT97R9R9Le-K8j-0" target="Jw7gK9yT97R9R9Le-K8j-5">
          <mxGeometry relative="1" as="geometry">
            <mxPoint x="667.5" y="1729.9999999999995" as="targetPoint" />
          </mxGeometry>
        </mxCell>
        <mxCell id="Jw7gK9yT97R9R9Le-K8j-0" value="User Clicks Play again Button" style="rounded=1;whiteSpace=wrap;html=1;" vertex="1" parent="WIyWlLk6GJQsqaUBKTNV-1">
          <mxGeometry x="467.5" y="1690" width="135" height="60" as="geometry" />
        </mxCell>
        <mxCell id="Jw7gK9yT97R9R9Le-K8j-5" value="" style="rounded=0;whiteSpace=wrap;html=1;" vertex="1" parent="WIyWlLk6GJQsqaUBKTNV-1">
          <mxGeometry x="770" y="1570" width="375" height="270" as="geometry" />
        </mxCell>
        <mxCell id="Jw7gK9yT97R9R9Le-K8j-8" value="Reset Gallows" style="rounded=1;whiteSpace=wrap;html=1;" vertex="1" parent="WIyWlLk6GJQsqaUBKTNV-1">
          <mxGeometry x="795.94" y="1600" width="120" height="60" as="geometry" />
        </mxCell>
        <mxCell id="Jw7gK9yT97R9R9Le-K8j-9" value="&lt;h1 style=&quot;border-color: var(--border-color); line-height: 50%;&quot;&gt;&lt;font style=&quot;border-color: var(--border-color); font-size: 14px;&quot;&gt;Обновить&amp;nbsp; UI&lt;br&gt;&lt;/font&gt;&lt;/h1&gt;" style="text;html=1;strokeColor=none;fillColor=none;spacing=5;spacingTop=-20;whiteSpace=wrap;overflow=hidden;rounded=0;" vertex="1" parent="WIyWlLk6GJQsqaUBKTNV-1">
          <mxGeometry x="480" y="460" width="100" height="30" as="geometry" />
        </mxCell>
        <mxCell id="Jw7gK9yT97R9R9Le-K8j-14" value="" style="edgeStyle=orthogonalEdgeStyle;rounded=0;orthogonalLoop=1;jettySize=auto;html=1;" edge="1" parent="WIyWlLk6GJQsqaUBKTNV-1" source="Jw7gK9yT97R9R9Le-K8j-10" target="Jw7gK9yT97R9R9Le-K8j-12">
          <mxGeometry relative="1" as="geometry" />
        </mxCell>
        <mxCell id="Jw7gK9yT97R9R9Le-K8j-10" value="Change Question" style="rounded=1;whiteSpace=wrap;html=1;" vertex="1" parent="WIyWlLk6GJQsqaUBKTNV-1">
          <mxGeometry x="795.94" y="1670" width="120" height="60" as="geometry" />
        </mxCell>
        <mxCell id="Jw7gK9yT97R9R9Le-K8j-11" value="Reset Counter" style="rounded=1;whiteSpace=wrap;html=1;" vertex="1" parent="WIyWlLk6GJQsqaUBKTNV-1">
          <mxGeometry x="795.94" y="1750" width="120" height="60" as="geometry" />
        </mxCell>
        <mxCell id="Jw7gK9yT97R9R9Le-K8j-12" value="Change Number of Underscores According to secret word" style="rounded=1;whiteSpace=wrap;html=1;" vertex="1" parent="WIyWlLk6GJQsqaUBKTNV-1">
          <mxGeometry x="1015.94" y="1670" width="120" height="80" as="geometry" />
        </mxCell>
        <mxCell id="Jw7gK9yT97R9R9Le-K8j-17" value="User press key on Physical Keyboard" style="ellipse;whiteSpace=wrap;html=1;" vertex="1" parent="WIyWlLk6GJQsqaUBKTNV-1">
          <mxGeometry x="-150" y="600" width="140" height="90" as="geometry" />
        </mxCell>
        <mxCell id="Jw7gK9yT97R9R9Le-K8j-20" value="" style="edgeStyle=orthogonalEdgeStyle;rounded=0;orthogonalLoop=1;jettySize=auto;html=1;" edge="1" parent="WIyWlLk6GJQsqaUBKTNV-1" source="Jw7gK9yT97R9R9Le-K8j-18" target="Jw7gK9yT97R9R9Le-K8j-19">
          <mxGeometry relative="1" as="geometry" />
        </mxCell>
        <mxCell id="Jw7gK9yT97R9R9Le-K8j-18" value="User clicks on Virtual Keyboard keys on the page" style="ellipse;whiteSpace=wrap;html=1;" vertex="1" parent="WIyWlLk6GJQsqaUBKTNV-1">
          <mxGeometry x="-150" y="750" width="140" height="90" as="geometry" />
        </mxCell>
        <mxCell id="Jw7gK9yT97R9R9Le-K8j-25" value="" style="edgeStyle=orthogonalEdgeStyle;rounded=0;orthogonalLoop=1;jettySize=auto;html=1;" edge="1" parent="WIyWlLk6GJQsqaUBKTNV-1" source="Jw7gK9yT97R9R9Le-K8j-19">
          <mxGeometry relative="1" as="geometry">
            <mxPoint x="430" y="765" as="targetPoint" />
          </mxGeometry>
        </mxCell>
        <mxCell id="Jw7gK9yT97R9R9Le-K8j-26" value="Yes" style="edgeLabel;html=1;align=center;verticalAlign=middle;resizable=0;points=[];arcSize=12;fontSize=19;" vertex="1" connectable="0" parent="Jw7gK9yT97R9R9Le-K8j-25">
          <mxGeometry x="-0.31" y="-1" relative="1" as="geometry">
            <mxPoint x="-102" y="124" as="offset" />
          </mxGeometry>
        </mxCell>
        <mxCell id="Jw7gK9yT97R9R9Le-K8j-30" value="" style="edgeStyle=orthogonalEdgeStyle;rounded=0;orthogonalLoop=1;jettySize=auto;html=1;" edge="1" parent="WIyWlLk6GJQsqaUBKTNV-1" source="Jw7gK9yT97R9R9Le-K8j-19">
          <mxGeometry relative="1" as="geometry">
            <mxPoint x="230" y="970" as="targetPoint" />
          </mxGeometry>
        </mxCell>
        <mxCell id="Jw7gK9yT97R9R9Le-K8j-19" value="&lt;font style=&quot;font-size: 15px;&quot;&gt;Is this letter &lt;br&gt;in the word ?&amp;nbsp;&lt;/font&gt;" style="rhombus;whiteSpace=wrap;html=1;" vertex="1" parent="WIyWlLk6GJQsqaUBKTNV-1">
          <mxGeometry x="150" y="700" width="160" height="130" as="geometry" />
        </mxCell>
        <mxCell id="Jw7gK9yT97R9R9Le-K8j-21" value="" style="edgeStyle=orthogonalEdgeStyle;rounded=0;orthogonalLoop=1;jettySize=auto;html=1;" edge="1" parent="WIyWlLk6GJQsqaUBKTNV-1" target="Jw7gK9yT97R9R9Le-K8j-19">
          <mxGeometry relative="1" as="geometry">
            <mxPoint x="-10.5" y="645" as="sourcePoint" />
            <mxPoint x="119.5" y="580" as="targetPoint" />
          </mxGeometry>
        </mxCell>
        <mxCell id="Jw7gK9yT97R9R9Le-K8j-31" value="No" style="edgeLabel;html=1;align=center;verticalAlign=middle;resizable=0;points=[];arcSize=12;fontSize=19;" vertex="1" connectable="0" parent="WIyWlLk6GJQsqaUBKTNV-1">
          <mxGeometry x="366.66666666666697" y="760" as="geometry">
            <mxPoint x="7" y="1" as="offset" />
          </mxGeometry>
        </mxCell>
        <mxCell id="Jw7gK9yT97R9R9Le-K8j-73" value="" style="edgeStyle=orthogonalEdgeStyle;rounded=0;orthogonalLoop=1;jettySize=auto;html=1;" edge="1" parent="WIyWlLk6GJQsqaUBKTNV-1" source="Jw7gK9yT97R9R9Le-K8j-33" target="Jw7gK9yT97R9R9Le-K8j-72">
          <mxGeometry relative="1" as="geometry" />
        </mxCell>
        <mxCell id="Jw7gK9yT97R9R9Le-K8j-33" value="Show letter instead of Underscore" style="whiteSpace=wrap;html=1;" vertex="1" parent="WIyWlLk6GJQsqaUBKTNV-1">
          <mxGeometry x="157.5" y="980" width="145" height="80" as="geometry" />
        </mxCell>
        <mxCell id="Jw7gK9yT97R9R9Le-K8j-40" value="&lt;p style=&quot;line-height: 120%;&quot;&gt;The clicked/pressed letter&amp;nbsp;&lt;br&gt;&lt;span style=&quot;box-sizing: border-box; font-weight: var(--base-text-weight-semibold, 600); font-family: -apple-system, BlinkMacSystemFont, &amp;quot;Segoe UI&amp;quot;, &amp;quot;Noto Sans&amp;quot;, Helvetica, Arial, sans-serif, &amp;quot;Apple Color Emoji&amp;quot;, &amp;quot;Segoe UI Emoji&amp;quot;; text-align: left; background-color: rgb(255, 255, 255);&quot;&gt;&lt;font style=&quot;font-size: 14px;&quot;&gt;must be disabled&lt;/font&gt;&lt;/span&gt;&lt;/p&gt;" style="whiteSpace=wrap;html=1;" vertex="1" parent="WIyWlLk6GJQsqaUBKTNV-1">
          <mxGeometry x="644.07" y="1001.25" width="151.87" height="77.5" as="geometry" />
        </mxCell>
        <mxCell id="Jw7gK9yT97R9R9Le-K8j-58" value="" style="edgeStyle=orthogonalEdgeStyle;rounded=0;orthogonalLoop=1;jettySize=auto;html=1;" edge="1" parent="WIyWlLk6GJQsqaUBKTNV-1" source="Jw7gK9yT97R9R9Le-K8j-46" target="Jw7gK9yT97R9R9Le-K8j-57">
          <mxGeometry relative="1" as="geometry" />
        </mxCell>
        <mxCell id="Jw7gK9yT97R9R9Le-K8j-46" value="Counter++" style="whiteSpace=wrap;html=1;" vertex="1" parent="WIyWlLk6GJQsqaUBKTNV-1">
          <mxGeometry x="710" y="720" width="140" height="75" as="geometry" />
        </mxCell>
        <mxCell id="Jw7gK9yT97R9R9Le-K8j-51" value="" style="edgeStyle=orthogonalEdgeStyle;rounded=0;orthogonalLoop=1;jettySize=auto;html=1;entryX=0.014;entryY=0.593;entryDx=0;entryDy=0;entryPerimeter=0;" edge="1" parent="WIyWlLk6GJQsqaUBKTNV-1" source="Jw7gK9yT97R9R9Le-K8j-48" target="Jw7gK9yT97R9R9Le-K8j-46">
          <mxGeometry relative="1" as="geometry">
            <mxPoint x="870" y="765" as="targetPoint" />
          </mxGeometry>
        </mxCell>
        <mxCell id="Jw7gK9yT97R9R9Le-K8j-60" value="" style="edgeStyle=orthogonalEdgeStyle;rounded=0;orthogonalLoop=1;jettySize=auto;html=1;" edge="1" parent="WIyWlLk6GJQsqaUBKTNV-1" source="Jw7gK9yT97R9R9Le-K8j-48" target="Jw7gK9yT97R9R9Le-K8j-59">
          <mxGeometry relative="1" as="geometry" />
        </mxCell>
        <mxCell id="Jw7gK9yT97R9R9Le-K8j-48" value="Counter &amp;lt; 6 ?" style="rhombus;whiteSpace=wrap;html=1;" vertex="1" parent="WIyWlLk6GJQsqaUBKTNV-1">
          <mxGeometry x="440" y="702.5" width="130" height="125" as="geometry" />
        </mxCell>
        <mxCell id="Jw7gK9yT97R9R9Le-K8j-52" value="&lt;span style=&quot;color: rgb(0, 0, 0); font-family: Helvetica; font-size: 19px; font-style: normal; font-variant-ligatures: normal; font-variant-caps: normal; font-weight: 400; letter-spacing: normal; orphans: 2; text-align: center; text-indent: 0px; text-transform: none; widows: 2; word-spacing: 0px; -webkit-text-stroke-width: 0px; background-color: rgb(255, 255, 255); text-decoration-thickness: initial; text-decoration-style: initial; text-decoration-color: initial; float: none; display: inline !important;&quot;&gt;Yes&lt;/span&gt;" style="text;whiteSpace=wrap;html=1;" vertex="1" parent="WIyWlLk6GJQsqaUBKTNV-1">
          <mxGeometry x="610" y="722.5" width="30" height="30" as="geometry" />
        </mxCell>
        <mxCell id="Jw7gK9yT97R9R9Le-K8j-56" value="" style="edgeStyle=orthogonalEdgeStyle;rounded=0;orthogonalLoop=1;jettySize=auto;html=1;entryX=0;entryY=0.5;entryDx=0;entryDy=0;" edge="1" parent="WIyWlLk6GJQsqaUBKTNV-1" source="Jw7gK9yT97R9R9Le-K8j-53" target="Jw7gK9yT97R9R9Le-K8j-17">
          <mxGeometry relative="1" as="geometry">
            <mxPoint x="-420" y="600" as="targetPoint" />
          </mxGeometry>
        </mxCell>
        <mxCell id="Jw7gK9yT97R9R9Le-K8j-53" value="&lt;font style=&quot;font-size: 15px;&quot;&gt;Guessing&lt;/font&gt;" style="rounded=1;whiteSpace=wrap;html=1;" vertex="1" parent="WIyWlLk6GJQsqaUBKTNV-1">
          <mxGeometry x="440" y="530" width="190" height="70" as="geometry" />
        </mxCell>
        <mxCell id="Jw7gK9yT97R9R9Le-K8j-54" value="" style="edgeStyle=orthogonalEdgeStyle;rounded=0;orthogonalLoop=1;jettySize=auto;html=1;entryX=0.5;entryY=0;entryDx=0;entryDy=0;" edge="1" parent="WIyWlLk6GJQsqaUBKTNV-1" source="Jw7gK9yT97R9R9Le-K8j-53" target="Jw7gK9yT97R9R9Le-K8j-18">
          <mxGeometry relative="1" as="geometry">
            <mxPoint x="-353" y="720" as="sourcePoint" />
            <mxPoint x="-80" y="690" as="targetPoint" />
            <Array as="points">
              <mxPoint x="-353" y="721" />
              <mxPoint x="-80" y="721" />
            </Array>
          </mxGeometry>
        </mxCell>
        <mxCell id="Jw7gK9yT97R9R9Le-K8j-79" value="" style="edgeStyle=orthogonalEdgeStyle;rounded=0;orthogonalLoop=1;jettySize=auto;html=1;entryX=0.75;entryY=1;entryDx=0;entryDy=0;" edge="1" parent="WIyWlLk6GJQsqaUBKTNV-1" target="Jw7gK9yT97R9R9Le-K8j-53">
          <mxGeometry relative="1" as="geometry">
            <mxPoint x="970" y="710" as="sourcePoint" />
            <mxPoint x="610" y="532.47" as="targetPoint" />
          </mxGeometry>
        </mxCell>
        <mxCell id="Jw7gK9yT97R9R9Le-K8j-57" value="&lt;font style=&quot;font-size: 14px;&quot;&gt;Add body part to Gallows&lt;/font&gt;" style="whiteSpace=wrap;html=1;" vertex="1" parent="WIyWlLk6GJQsqaUBKTNV-1">
          <mxGeometry x="950" y="700" width="140" height="75" as="geometry" />
        </mxCell>
        <mxCell id="Jw7gK9yT97R9R9Le-K8j-63" value="" style="edgeStyle=orthogonalEdgeStyle;rounded=0;orthogonalLoop=1;jettySize=auto;html=1;" edge="1" parent="WIyWlLk6GJQsqaUBKTNV-1" source="Jw7gK9yT97R9R9Le-K8j-59" target="Jw7gK9yT97R9R9Le-K8j-62">
          <mxGeometry relative="1" as="geometry" />
        </mxCell>
        <mxCell id="Jw7gK9yT97R9R9Le-K8j-59" value="If Counter == 6" style="rhombus;whiteSpace=wrap;html=1;" vertex="1" parent="WIyWlLk6GJQsqaUBKTNV-1">
          <mxGeometry x="440" y="953.75" width="130" height="125" as="geometry" />
        </mxCell>
        <mxCell id="Jw7gK9yT97R9R9Le-K8j-65" value="" style="edgeStyle=orthogonalEdgeStyle;rounded=0;orthogonalLoop=1;jettySize=auto;html=1;" edge="1" parent="WIyWlLk6GJQsqaUBKTNV-1" source="Jw7gK9yT97R9R9Le-K8j-62" target="Jw7gK9yT97R9R9Le-K8j-64">
          <mxGeometry relative="1" as="geometry" />
        </mxCell>
        <mxCell id="Jw7gK9yT97R9R9Le-K8j-62" value="Show lose Modal&amp;nbsp;" style="whiteSpace=wrap;html=1;" vertex="1" parent="WIyWlLk6GJQsqaUBKTNV-1">
          <mxGeometry x="445" y="1191.25" width="120" height="60" as="geometry" />
        </mxCell>
        <mxCell id="Jw7gK9yT97R9R9Le-K8j-67" value="" style="edgeStyle=orthogonalEdgeStyle;rounded=0;orthogonalLoop=1;jettySize=auto;html=1;" edge="1" parent="WIyWlLk6GJQsqaUBKTNV-1" source="Jw7gK9yT97R9R9Le-K8j-64" target="Jw7gK9yT97R9R9Le-K8j-66">
          <mxGeometry relative="1" as="geometry" />
        </mxCell>
        <mxCell id="Jw7gK9yT97R9R9Le-K8j-64" value="Show Correct word" style="whiteSpace=wrap;html=1;" vertex="1" parent="WIyWlLk6GJQsqaUBKTNV-1">
          <mxGeometry x="445" y="1320" width="120" height="60" as="geometry" />
        </mxCell>
        <mxCell id="Jw7gK9yT97R9R9Le-K8j-94" value="" style="edgeStyle=orthogonalEdgeStyle;rounded=0;orthogonalLoop=1;jettySize=auto;html=1;" edge="1" parent="WIyWlLk6GJQsqaUBKTNV-1" source="Jw7gK9yT97R9R9Le-K8j-66">
          <mxGeometry relative="1" as="geometry">
            <mxPoint x="505" y="1680" as="targetPoint" />
          </mxGeometry>
        </mxCell>
        <mxCell id="Jw7gK9yT97R9R9Le-K8j-66" value="Show play again button" style="whiteSpace=wrap;html=1;" vertex="1" parent="WIyWlLk6GJQsqaUBKTNV-1">
          <mxGeometry x="445" y="1460" width="120" height="60" as="geometry" />
        </mxCell>
        <mxCell id="Jw7gK9yT97R9R9Le-K8j-71" value="&lt;span style=&quot;color: rgb(0, 0, 0); font-family: Helvetica; font-size: 19px; font-style: normal; font-variant-ligatures: normal; font-variant-caps: normal; font-weight: 400; letter-spacing: normal; orphans: 2; text-align: center; text-indent: 0px; text-transform: none; widows: 2; word-spacing: 0px; -webkit-text-stroke-width: 0px; background-color: rgb(255, 255, 255); text-decoration-thickness: initial; text-decoration-style: initial; text-decoration-color: initial; float: none; display: inline !important;&quot;&gt;No&lt;/span&gt;" style="text;whiteSpace=wrap;html=1;" vertex="1" parent="WIyWlLk6GJQsqaUBKTNV-1">
          <mxGeometry x="515" y="860" width="30" height="30" as="geometry" />
        </mxCell>
        <mxCell id="Jw7gK9yT97R9R9Le-K8j-82" value="" style="edgeStyle=orthogonalEdgeStyle;rounded=0;orthogonalLoop=1;jettySize=auto;html=1;" edge="1" parent="WIyWlLk6GJQsqaUBKTNV-1" source="Jw7gK9yT97R9R9Le-K8j-72" target="Jw7gK9yT97R9R9Le-K8j-81">
          <mxGeometry relative="1" as="geometry" />
        </mxCell>
        <mxCell id="Jw7gK9yT97R9R9Le-K8j-72" value="No underscores left ?" style="rhombus;whiteSpace=wrap;html=1;" vertex="1" parent="WIyWlLk6GJQsqaUBKTNV-1">
          <mxGeometry x="162.5" y="1158.75" width="135" height="171.25" as="geometry" />
        </mxCell>
        <mxCell id="Jw7gK9yT97R9R9Le-K8j-84" value="" style="edgeStyle=orthogonalEdgeStyle;rounded=0;orthogonalLoop=1;jettySize=auto;html=1;" edge="1" parent="WIyWlLk6GJQsqaUBKTNV-1" source="Jw7gK9yT97R9R9Le-K8j-81" target="Jw7gK9yT97R9R9Le-K8j-83">
          <mxGeometry relative="1" as="geometry" />
        </mxCell>
        <mxCell id="Jw7gK9yT97R9R9Le-K8j-81" value="Show win modal" style="whiteSpace=wrap;html=1;" vertex="1" parent="WIyWlLk6GJQsqaUBKTNV-1">
          <mxGeometry x="170" y="1400" width="120" height="60" as="geometry" />
        </mxCell>
        <mxCell id="Jw7gK9yT97R9R9Le-K8j-87" value="" style="edgeStyle=orthogonalEdgeStyle;rounded=0;orthogonalLoop=1;jettySize=auto;html=1;" edge="1" parent="WIyWlLk6GJQsqaUBKTNV-1" source="Jw7gK9yT97R9R9Le-K8j-83">
          <mxGeometry relative="1" as="geometry">
            <mxPoint x="230" y="1689.9999999999995" as="targetPoint" />
          </mxGeometry>
        </mxCell>
        <mxCell id="Jw7gK9yT97R9R9Le-K8j-83" value="Show Correct word" style="whiteSpace=wrap;html=1;" vertex="1" parent="WIyWlLk6GJQsqaUBKTNV-1">
          <mxGeometry x="170" y="1550" width="120" height="60" as="geometry" />
        </mxCell>
        <mxCell id="Jw7gK9yT97R9R9Le-K8j-92" value="" style="edgeStyle=orthogonalEdgeStyle;rounded=0;orthogonalLoop=1;jettySize=auto;html=1;" edge="1" parent="WIyWlLk6GJQsqaUBKTNV-1" source="Jw7gK9yT97R9R9Le-K8j-85">
          <mxGeometry relative="1" as="geometry">
            <mxPoint x="460" y="1730" as="targetPoint" />
          </mxGeometry>
        </mxCell>
        <mxCell id="Jw7gK9yT97R9R9Le-K8j-85" value="Show play again button" style="whiteSpace=wrap;html=1;" vertex="1" parent="WIyWlLk6GJQsqaUBKTNV-1">
          <mxGeometry x="162.5" y="1694" width="120" height="60" as="geometry" />
        </mxCell>
        <mxCell id="Jw7gK9yT97R9R9Le-K8j-88" style="edgeStyle=orthogonalEdgeStyle;rounded=0;orthogonalLoop=1;jettySize=auto;html=1;exitX=1;exitY=0.5;exitDx=0;exitDy=0;entryX=1;entryY=0.75;entryDx=0;entryDy=0;" edge="1" parent="WIyWlLk6GJQsqaUBKTNV-1" source="Jw7gK9yT97R9R9Le-K8j-0" target="Jw7gK9yT97R9R9Le-K8j-0">
          <mxGeometry relative="1" as="geometry" />
        </mxCell>
      </root>
    </mxGraphModel>
  </diagram>
</mxfile>
